<?xml version="1.0" encoding="utf-8"?>
<!-- Generator: Adobe Illustrator 22.1.0, SVG Export Plug-In . SVG Version: 6.00 Build 0)  -->
<svg version="1.1" id="Layer_1" xmlns="http://www.w3.org/2000/svg" xmlns:xlink="http://www.w3.org/1999/xlink" x="0px" y="0px"
	 viewBox="0 0 100 100" style="enable-background:new 0 0 100 100;" xml:space="preserve">
<style type="text/css">
	.st0{fill-rule:evenodd;clip-rule:evenodd;fill:#00AA63;}
	.st1{fill-rule:evenodd;clip-rule:evenodd;fill:#FFFFFF;}
</style>
<g>
	<path class="st0" d="M50.2,2C76.6,2,98,23.4,98,49.8S76.6,97.7,50.2,97.7c-26.4,0-47.8-21.4-47.8-47.8S23.7,2,50.2,2L50.2,2z"/>
	<path class="st1" d="M50.7,72.3c-4.8,0-9.2-1.4-12.9-3.8l-9,2.9l2.9-8.6c-2.8-3.8-4.5-8.5-4.5-13.6c0-0.8,0-1.5,0.1-2.3
		c1.1-11.7,11.1-21,23.3-21C63,25.9,73,35.4,74,47.3c0.1,0.6,0.1,1.2,0.1,1.8C74.1,61.9,63.6,72.3,50.7,72.3L50.7,72.3z M78.5,48.4
		c-0.4-14.9-12.7-26.9-27.8-26.9c-15,0-27.1,11.7-27.8,26.4c0,0.4,0,0.8,0,1.2c0,5.2,1.5,10.1,4,14.3l-5,14.8l15.4-4.9
		c4,2.2,8.6,3.4,13.4,3.4c15.4,0,27.8-12.4,27.8-27.6C78.5,48.9,78.5,48.6,78.5,48.4L78.5,48.4z"/>
	<path class="st1" d="M63.4,54.7c-0.7-0.3-4-2-4.7-2.2c-0.6-0.2-1.1-0.3-1.5,0.3c-0.5,0.7-1.8,2.2-2.2,2.6c-0.4,0.5-0.8,0.5-1.5,0.2
		c-0.7-0.3-2.9-1-5.5-3.4c-2-1.8-3.4-4-3.8-4.7c-0.4-0.7,0-1,0.3-1.4c0.3-0.3,0.7-0.8,1-1.2c0.1-0.1,0.2-0.2,0.2-0.3
		c0.2-0.2,0.3-0.5,0.4-0.8c0.2-0.5,0.1-0.8-0.1-1.2c-0.2-0.3-1.5-3.7-2.1-5c-0.6-1.4-1.1-1.1-1.5-1.1c-0.4,0-0.8-0.1-1.3-0.1
		c-0.5,0-1.2,0.2-1.8,0.8c-0.6,0.7-2.4,2.3-2.4,5.7c0,0.8,0.1,1.6,0.4,2.3c0.7,2.4,2.2,4.3,2.4,4.7c0.3,0.4,4.7,7.5,11.6,10.2
		c6.9,2.7,6.9,1.8,8.2,1.7c1.2-0.1,4-1.6,4.6-3.2c0.6-1.6,0.6-2.9,0.4-3.2C64.6,55.2,64.1,55,63.4,54.7L63.4,54.7z"/>
</g>
</svg>
